{"title":"Mr. Joe B. Carvalho (2013) 1CD DVDScr Rip - Xvid - MP3{VikkyMaxx","uid":9441459,"size":752161068,"categoryP":"video","categoryS":"movies","magnet":"?xt=urn:btih:ef862e7976390da1cce709064fade66c3d3be448&amp;dn=Mr.+Joe+B.+Carvalho+%282013%29+1CD+DVDScr+Rip+-+Xvid+-+MP3%7BVikkyMaxx&amp;tr=udp%3A%2F%2Ftracker.openbittorrent.com%3A80&amp;tr=udp%3A%2F%2Fopen.demonii.com%3A1337&amp;tr=udp%3A%2F%2Ftracker.coppersurfer.tk%3A6969&amp;tr=udp%3A%2F%2Fexodus.desync.com%3A6969","seeders":1,"leechers":0,"uploader":"shailendramaxx","files":-1,"time":1389015647,"description":"\n\nGeneral:-\n\nComplete name                            : Mr. Joe B. Carvalho (2013) 1CD DVDScr Rip - Xvid - MP3{VikkyMaxx}\nFormat                                   : AVI\nFormat/Info                              : Audio Video Interleave\nFile size                                : 710 MiB\nDuration                                 : 2h 2mn\nOverall bit rate                         : 814 Kbps\nWriting library                          : VirtualDub build 35491/release\n\nVideo:-\n\nID                                       : 0\nFormat                                   : MPEG-4 Visual\nFormat profile                           : Advanced Simple@L5\nFormat settings, BVOP                    : 2\nFormat settings, QPel                    : No\nFormat settings, GMC                     : No warppoints\nFormat settings, Matrix                  : Default (H.263)\nMuxing mode                              : Packed bitstream\nCodec ID                                 : XVID\nCodec ID/Hint                            : XviD\nDuration                                 : 2h 2mn\nBit rate                                 : 722 Kbps\nWidth                                    : 640 pixels\nHeight                                   : 272 pixels\nDisplay aspect ratio                     : 2.35:1\nFrame rate                               : 29.970 fps\nColor space                              : YUV\nChroma subsampling                       : 4:2:0\nBit depth                                : 8 bits\nScan type                                : Progressive\nCompression mode                         : Lossy\nBits/(Pixel*Frame)                       : 0.138\nStream size                              : 630 MiB (89%)\nWriting library                          : XviD 64\n\nAudio:-\n\nID                                       : 1\nFormat                                   : MPEG Audio\nFormat version                           : Version 1\nFormat profile                           : Layer 3\nMode                                     : Joint stereo\nMode extension                           : MS Stereo\nCodec ID                                 : 55\nCodec ID/Hint                            : MP3\nDuration                                 : 2h 2mn\nBit rate mode                            : Constant\nBit rate                                 : 80.0 Kbps\nChannel(s)                               : 2 channels\nSampling rate                            : 32.0 KHz\nCompression mode                         : Lossy\nStream size                              : 69.8 MiB (10%)\nAlignment                                : Split accross interleaves\nInterleave, duration                     : 33 ms (1.00 video frame)\nInterleave, preload duration             : 500 ms\nWriting library                          : LAME3.99r\nEncoding settings                        : -m j -V 4 -q 2 -lowpass 13.5 \n\n                    \n                          A BIG THANKS TO - Team ICTV\n\nSCREENS:-\n\n[URL=http://imgur.com/xnrns44][IMG]http://i.imgur.com/xnrns44.jpg[/IMG][/URL]\n\n[URL=http://imgur.com/t7046t3][IMG]http://i.imgur.com/t7046t3.jpg[/IMG][/URL]\n\n[URL=http://imgur.com/KLzFYV3][IMG]http://i.imgur.com/KLzFYV3.jpg[/IMG][/URL]\n\n[URL=http://imgur.com/aaNAMEV][IMG]http://i.imgur.com/aaNAMEV.jpg[/IMG][/URL]\n\n[URL=http://imgur.com/2A4Ht9y][IMG]http://i.imgur.com/2A4Ht9y.jpg[/IMG][/URL]\n\n[URL=http://imgur.com/TfWR0dI][IMG]http://i.imgur.com/TfWR0dI.jpg[/IMG][/URL]\n\n[URL=http://imgur.com/6jelJdT][IMG]http://i.imgur.com/6jelJdT.jpg[/IMG][/URL]\n\n[URL=http://imgur.com/pSucRhI][IMG]http://i.imgur.com/pSucRhI.jpg[/IMG][/URL]\n\n\n SAMPLE INCLUDED\n \n LANGUAGE :- HINDI\n                        \n           ********** PLEASE SEED AS LONG AS YOU CAN AFTER DOWNLOAD **********\n       \n                     ***** THANK YOU REGARDS - VIKKYMAXX *****","torrent":{"xt":"urn:btih:ef862e7976390da1cce709064fade66c3d3be448","amp;dn":"Mr.+Joe+B.+Carvalho+%282013%29+1CD+DVDScr+Rip+-+Xvid+-+MP3%7BVikkyMaxx","amp;tr":["udp%3A%2F%2Ftracker.openbittorrent.com%3A80","udp%3A%2F%2Fopen.demonii.com%3A1337","udp%3A%2F%2Ftracker.coppersurfer.tk%3A6969","udp%3A%2F%2Fexodus.desync.com%3A6969"],"infoHash":"ef862e7976390da1cce709064fade66c3d3be448","infoHashBuffer":{"type":"Buffer","data":[239,134,46,121,118,57,13,161,204,231,9,6,79,173,230,108,61,59,228,72]},"announce":[],"urlList":[]}}